# xmcd CD database file
#
# Track frame offsets:
#	150
#	19520
#	40395
#	53885
#	71620
#	84715
#	99570
#	114755
#	130200
#	142715
#	158955
#	171245
#	189020
#
# Disc length: 2734 seconds
#
# Revision: 0
# Processed by: cddbd v1.5.2PL0 Copyright (c) Steve Scherf et al.
# Submitted via: CDex 1.70beta2
#
DISCID=a10aac0d
DTITLE=Jones, Norah  - Not Too Late
DYEAR=1900
DGENRE=Jazz
TTITLE0=01 - Wish I Could
TTITLE1=02 - Sinkin' Soon
TTITLE2=03 - The Sun Doen't Like You
TTITLE3=04 - Until The End
TTITLE4=05 - Not My Friend
TTITLE5=06 - Thinking About You
TTITLE6=07 - Broken
TTITLE7=08 - My Dear Country
TTITLE8=09 - Wake Me Up
TTITLE9=10 - Be My Somebody
TTITLE10=11 - Little Room
TTITLE11=12 - Rosie's Lullaby
TTITLE12=13 - Not Too Late
EXTD=
EXTT0=
EXTT1=
EXTT2=
EXTT3=
EXTT4=
EXTT5=
EXTT6=
EXTT7=
EXTT8=
EXTT9=
EXTT10=
EXTT11=
EXTT12=
PLAYORDER=
